<svg xmlns="http://www.w3.org/2000/svg" viewBox="0 0 64 64">
  <circle cx="32" cy="32" r="30" fill="#0d3d1d" stroke="#c9a84c" stroke-width="2"/>
  <circle cx="32" cy="32" r="21" fill="#1a6b3c" stroke="#c9a84c" stroke-width="2"/>
  <g fill="#c9a84c">
    <rect x="30" y="6" width="4" height="8" rx="1.5"/>
    <rect x="30" y="50" width="4" height="8" rx="1.5"/>
    <rect x="6" y="30" width="8" height="4" rx="1.5"/>
    <rect x="50" y="30" width="8" height="4" rx="1.5"/>
    <rect x="12.4" y="12.4" width="8" height="4" rx="1.5" transform="rotate(-45 16.4 14.4)"/>
    <rect x="43.6" y="47.6" width="8" height="4" rx="1.5" transform="rotate(-45 47.6 49.6)"/>
    <rect x="43.6" y="12.4" width="8" height="4" rx="1.5" transform="rotate(45 47.6 14.4)"/>
    <rect x="12.4" y="47.6" width="8" height="4" rx="1.5" transform="rotate(45 16.4 49.6)"/>
  </g>
  <text x="32" y="41" text-anchor="middle" font-family="Georgia, serif" font-weight="bold" font-size="22" fill="#c9a84c">A</text>
</svg>
